<svg width="22" height="25" viewBox="0 0 22 25" fill="none" xmlns="http://www.w3.org/2000/svg">
<path d="M21 17.5H1V23.5H21V17.5Z" stroke="black" stroke-width="2" stroke-linecap="round" stroke-linejoin="round"/>
<path d="M17.7826 17.5H4.54262C4.33235 17.4997 4.12436 17.4564 3.93138 17.3729C3.7384 17.2894 3.5645 17.1674 3.42033 17.0143C3.27616 16.8613 3.16475 16.6804 3.09293 16.4827C3.0211 16.2851 2.99037 16.0749 3.00262 15.865L3.40762 8.75C3.40762 6.69457 4.22413 4.7233 5.67754 3.2699C7.13094 1.81649 9.10219 1 11.1576 1V1C13.2131 1 15.1843 1.81649 16.6377 3.2699C18.0911 4.7233 18.9076 6.69457 18.9076 8.75L19.3126 15.865C19.3248 16.0741 19.2944 16.2835 19.2232 16.4804C19.152 16.6774 19.0414 16.8578 18.8983 17.0107C18.7552 17.1636 18.5825 17.2859 18.3907 17.37C18.1989 17.4541 17.9921 17.4983 17.7826 17.5V17.5Z" stroke="black" stroke-width="2" stroke-linecap="round" stroke-linejoin="round"/>
</svg>
